<svg width="24" height="24" viewBox="0 0 24 24" fill="none" xmlns="http://www.w3.org/2000/svg">
<path d="M14.25 13.125C14.25 13.7925 14.0521 14.445 13.6812 15C13.3104 15.5551 12.7833 15.9876 12.1666 16.2431C11.5499 16.4985 10.8713 16.5654 10.2166 16.4352C9.56188 16.3049 8.96052 15.9835 8.48851 15.5115C8.01651 15.0395 7.69507 14.4381 7.56485 13.7834C7.43462 13.1287 7.50146 12.4501 7.75691 11.8334C8.01235 11.2167 8.44493 10.6896 8.99995 10.3188C9.55497 9.94794 10.2075 9.75 10.875 9.75C11.3182 9.75 11.7571 9.8373 12.1666 10.0069C12.576 10.1765 12.9481 10.4251 13.2615 10.7385C13.5749 11.0519 13.8235 11.424 13.9931 11.8334C14.1627 12.2429 14.25 12.6818 14.25 13.125ZM20.25 3.75V20.25C20.25 20.6478 20.092 21.0294 19.8107 21.3107C19.5294 21.592 19.1478 21.75 18.75 21.75H5.25C4.85218 21.75 4.47064 21.592 4.18934 21.3107C3.90804 21.0294 3.75 20.6478 3.75 20.25V3.75C3.75 3.35218 3.90804 2.97064 4.18934 2.68934C4.47064 2.40804 4.85218 2.25 5.25 2.25H18.75C19.1478 2.25 19.5294 2.40804 19.8107 2.68934C20.092 2.97064 20.25 3.35218 20.25 3.75ZM18 6.75C18 6.55109 17.921 6.36032 17.7803 6.21967C17.6397 6.07902 17.4489 6 17.25 6H14.25C14.0511 6 13.8603 6.07902 13.7197 6.21967C13.579 6.36032 13.5 6.55109 13.5 6.75C13.5 6.94891 13.579 7.13968 13.7197 7.28033C13.8603 7.42098 14.0511 7.5 14.25 7.5H15.4397L13.7522 9.1875C12.7605 8.46032 11.531 8.13412 10.3092 8.27409C9.08752 8.41406 7.9636 9.00988 7.16208 9.9425C6.36057 10.8751 5.94049 12.0758 5.98579 13.3047C6.03109 14.5336 6.53843 15.7001 7.40643 16.5712C8.27444 17.4423 9.43917 17.9537 10.6679 18.0034C11.8966 18.053 13.0988 17.6372 14.0342 16.839C14.9697 16.0407 15.5695 14.9189 15.7138 13.6977C15.858 12.4765 15.5362 11.2458 14.8125 10.2516L16.5 8.56406V9.75C16.5 9.94891 16.579 10.1397 16.7197 10.2803C16.8603 10.421 17.0511 10.5 17.25 10.5C17.4489 10.5 17.6397 10.421 17.7803 10.2803C17.921 10.1397 18 9.94891 18 9.75V6.75Z" fill="#FF8700"/>
</svg>
