<svg width="24" height="24" viewBox="0 0 24 24" fill="none" xmlns="http://www.w3.org/2000/svg">
<path d="M20.5901 10.0001H12.6501C12.1665 8.63063 11.203 7.48286 9.93795 6.76944C8.67292 6.05603 7.19218 5.82533 5.77008 6.12009C3.48008 6.58009 1.62008 8.42009 1.14008 10.7001C0.945784 11.5773 0.950891 12.4869 1.15503 13.3618C1.35916 14.2367 1.75712 15.0547 2.31953 15.7553C2.88195 16.4559 3.59449 17.0214 4.40458 17.4099C5.21467 17.7984 6.10164 18.0001 7.00008 18.0001C8.24002 18.0001 9.44943 17.6154 10.4614 16.8989C11.4734 16.1825 12.2381 15.1696 12.6501 14.0001H13.0001L14.2901 15.2901C14.6801 15.6801 15.3101 15.6801 15.7001 15.2901L17.0001 14.0001L18.2901 15.2901C18.6801 15.6801 19.3201 15.6801 19.7101 15.2901L22.3001 12.6801C22.3933 12.5865 22.467 12.4754 22.517 12.3532C22.567 12.231 22.5922 12.1001 22.5913 11.968C22.5904 11.836 22.5633 11.7054 22.5116 11.5839C22.4599 11.4624 22.3846 11.3523 22.2901 11.2601L21.3001 10.2901C21.1001 10.1001 20.8501 10.0001 20.5901 10.0001ZM7.00008 15.0001C5.35008 15.0001 4.00008 13.6501 4.00008 12.0001C4.00008 10.3501 5.35008 9.00009 7.00008 9.00009C8.65008 9.00009 10.0001 10.3501 10.0001 12.0001C10.0001 13.6501 8.65008 15.0001 7.00008 15.0001Z" fill="#FF8700"/>
</svg>
