<svg width="99" height="100" viewBox="0 0 99 100" fill="none" xmlns="http://www.w3.org/2000/svg">
<rect width="99" height="100" rx="8" fill="#E9C362"/>
<g clip-path="url(#clip0_686_1696)">
<path d="M49.5 34C47.859 34 46.2852 33.3679 45.1248 32.2426C43.9644 31.1174 43.3125 29.5913 43.3125 28C43.3125 26.4087 43.9644 24.8826 45.1248 23.7574C46.2852 22.6321 47.859 22 49.5 22C51.141 22 52.7148 22.6321 53.8752 23.7574C55.0356 24.8826 55.6875 26.4087 55.6875 28C55.6875 29.5913 55.0356 31.1174 53.8752 32.2426C52.7148 33.3679 51.141 34 49.5 34ZM49.5 36C51.688 36 53.7865 35.1571 55.3336 33.6569C56.8808 32.1566 57.75 30.1217 57.75 28C57.75 25.8783 56.8808 23.8434 55.3336 22.3431C53.7865 20.8429 51.688 20 49.5 20C47.312 20 45.2135 20.8429 43.6664 22.3431C42.1192 23.8434 41.25 25.8783 41.25 28C41.25 30.1217 42.1192 32.1566 43.6664 33.6569C45.2135 35.1571 47.312 36 49.5 36ZM49.5 12C49.7735 12 50.0358 12.1054 50.2292 12.2929C50.4226 12.4804 50.5312 12.7348 50.5312 13V17C50.5312 17.2652 50.4226 17.5196 50.2292 17.7071C50.0358 17.8946 49.7735 18 49.5 18C49.2265 18 48.9642 17.8946 48.7708 17.7071C48.5774 17.5196 48.4688 17.2652 48.4688 17V13C48.4688 12.7348 48.5774 12.4804 48.7708 12.2929C48.9642 12.1054 49.2265 12 49.5 12ZM49.5 38C49.7735 38 50.0358 38.1054 50.2292 38.2929C50.4226 38.4804 50.5312 38.7348 50.5312 39V43C50.5312 43.2652 50.4226 43.5196 50.2292 43.7071C50.0358 43.8946 49.7735 44 49.5 44C49.2265 44 48.9642 43.8946 48.7708 43.7071C48.5774 43.5196 48.4688 43.2652 48.4688 43V39C48.4688 38.7348 48.5774 38.4804 48.7708 38.2929C48.9642 38.1054 49.2265 38 49.5 38ZM66 28C66 28.2652 65.8913 28.5196 65.698 28.7071C65.5046 28.8946 65.2423 29 64.9688 29H60.8438C60.5702 29 60.3079 28.8946 60.1145 28.7071C59.9211 28.5196 59.8125 28.2652 59.8125 28C59.8125 27.7348 59.9211 27.4804 60.1145 27.2929C60.3079 27.1054 60.5702 27 60.8438 27H64.9688C65.2423 27 65.5046 27.1054 65.698 27.2929C65.8913 27.4804 66 27.7348 66 28ZM39.1875 28C39.1875 28.2652 39.0789 28.5196 38.8855 28.7071C38.6921 28.8946 38.4298 29 38.1562 29H34.0312C33.7577 29 33.4954 28.8946 33.302 28.7071C33.1086 28.5196 33 28.2652 33 28C33 27.7348 33.1086 27.4804 33.302 27.2929C33.4954 27.1054 33.7577 27 34.0312 27H38.1562C38.4298 27 38.6921 27.1054 38.8855 27.2929C39.0789 27.4804 39.1875 27.7348 39.1875 28ZM61.1676 16.686C61.3609 16.8735 61.4695 17.1278 61.4695 17.393C61.4695 17.6582 61.3609 17.9125 61.1676 18.1L58.2512 20.93C58.1553 21.0228 58.0415 21.0965 57.9163 21.1467C57.7911 21.1969 57.6569 21.2226 57.5214 21.2226C57.2477 21.2224 56.9853 21.1168 56.792 20.929C56.6962 20.836 56.6203 20.7257 56.5685 20.6042C56.5168 20.4828 56.4902 20.3527 56.4903 20.2213C56.4905 19.9559 56.5994 19.7015 56.793 19.514L59.7094 16.686C59.9028 16.4985 60.165 16.3932 60.4385 16.3932C60.7119 16.3932 60.9742 16.4985 61.1676 16.686ZM42.207 35.072C42.4003 35.2595 42.5089 35.5138 42.5089 35.779C42.5089 36.0442 42.4003 36.2985 42.207 36.486L39.2906 39.314C39.0961 39.4962 38.8356 39.597 38.5652 39.5947C38.2949 39.5924 38.0362 39.4872 37.845 39.3018C37.6538 39.1164 37.5453 38.8656 37.543 38.6034C37.5406 38.3412 37.6446 38.0886 37.8324 37.9L40.7488 35.072C40.9422 34.8845 41.2045 34.7792 41.4779 34.7792C41.7514 34.7792 42.0136 34.8845 42.207 35.072ZM61.1676 39.314C60.9742 39.5015 60.7119 39.6068 60.4385 39.6068C60.165 39.6068 59.9028 39.5015 59.7094 39.314L56.793 36.486C56.6052 36.2974 56.5012 36.0448 56.5036 35.7826C56.5059 35.5204 56.6144 35.2696 56.8056 35.0842C56.9968 34.8988 57.2554 34.7936 57.5258 34.7913C57.7962 34.789 58.0567 34.8898 58.2512 35.072L61.1676 37.9C61.3609 38.0875 61.4695 38.3418 61.4695 38.607C61.4695 38.8722 61.3609 39.1265 61.1676 39.314ZM42.207 20.93C42.0136 21.1175 41.7514 21.2228 41.4779 21.2228C41.2045 21.2228 40.9422 21.1175 40.7488 20.93L37.8324 18.1C37.7339 18.0078 37.6554 17.8974 37.6013 17.7754C37.5473 17.6534 37.5188 17.5222 37.5176 17.3894C37.5165 17.2566 37.5426 17.1249 37.5944 17.002C37.6463 16.8791 37.7228 16.7675 37.8197 16.6736C37.9165 16.5797 38.0316 16.5055 38.1584 16.4552C38.2851 16.4049 38.4209 16.3796 38.5578 16.3807C38.6947 16.3819 38.8301 16.4095 38.9559 16.4619C39.0817 16.5143 39.1955 16.5905 39.2906 16.686L42.207 19.514C42.303 19.6069 42.3792 19.7172 42.4312 19.8387C42.4832 19.9602 42.51 20.0905 42.51 20.222C42.51 20.3535 42.4832 20.4838 42.4312 20.6053C42.3792 20.7268 42.303 20.8371 42.207 20.93Z" fill="#E77A00"/>
</g>
<path d="M36.799 64V56.7273H37.8963V63.0554H41.1918V64H36.799ZM45.8136 61.7379V58.5455H46.8789V64H45.8349V63.0554H45.7781C45.6526 63.3466 45.4513 63.5893 45.1744 63.7834C44.8997 63.9751 44.5576 64.071 44.1481 64.071C43.7977 64.071 43.4876 63.9941 43.2177 63.8402C42.9502 63.6839 42.7395 63.4531 42.5856 63.1477C42.4341 62.8423 42.3583 62.4647 42.3583 62.0149V58.5455H43.4201V61.8871C43.4201 62.2588 43.5231 62.5547 43.729 62.7749C43.935 62.995 44.2025 63.1051 44.5316 63.1051C44.7305 63.1051 44.9281 63.0554 45.1246 62.956C45.3235 62.8565 45.488 62.7062 45.6183 62.505C45.7508 62.3037 45.8159 62.0481 45.8136 61.7379ZM49.3674 60.7614V64H48.3056V58.5455H49.3248V59.4332H49.3922C49.5177 59.1444 49.7142 58.9124 49.9817 58.7372C50.2516 58.562 50.5913 58.4744 51.0009 58.4744C51.3726 58.4744 51.6981 58.5526 51.9775 58.7088C52.2568 58.8627 52.4734 59.0923 52.6273 59.3977C52.7812 59.7031 52.8581 60.0807 52.8581 60.5305V64H51.7963V60.6584C51.7963 60.263 51.6934 59.9541 51.4874 59.7315C51.2814 59.5066 50.9985 59.3942 50.6387 59.3942C50.3925 59.3942 50.1735 59.4474 49.9817 59.554C49.7923 59.6605 49.642 59.8168 49.5307 60.0227C49.4218 60.2263 49.3674 60.4725 49.3674 60.7614ZM56.5797 64.1101C56.0518 64.1101 55.5972 63.9905 55.2161 63.7514C54.8373 63.5099 54.5461 63.1773 54.3425 62.7536C54.1389 62.3298 54.0371 61.8445 54.0371 61.2976C54.0371 60.7436 54.1413 60.2547 54.3496 59.831C54.5579 59.4048 54.8515 59.0722 55.2303 58.8331C55.6091 58.594 56.0553 58.4744 56.5691 58.4744C56.9834 58.4744 57.3527 58.5514 57.677 58.7053C58.0014 58.8568 58.263 59.0698 58.4618 59.3445C58.6631 59.6191 58.7826 59.9399 58.8205 60.3068H57.7871C57.7303 60.0511 57.6001 59.831 57.3965 59.6463C57.1953 59.4616 56.9254 59.3693 56.5868 59.3693C56.2909 59.3693 56.0317 59.4474 55.8091 59.6037C55.589 59.7576 55.4173 59.9777 55.2942 60.2642C55.1711 60.5483 55.1096 60.8845 55.1096 61.2727C55.1096 61.6705 55.1699 62.0137 55.2907 62.3026C55.4114 62.5914 55.5819 62.8151 55.802 62.9737C56.0246 63.1323 56.2862 63.2116 56.5868 63.2116C56.7881 63.2116 56.9703 63.175 57.1337 63.1016C57.2994 63.0258 57.4379 62.9181 57.5492 62.7784C57.6628 62.6387 57.7421 62.4706 57.7871 62.2741H58.8205C58.7826 62.6269 58.6678 62.9418 58.476 63.2188C58.2843 63.4957 58.0274 63.7135 57.7054 63.8722C57.3858 64.0308 57.0106 64.1101 56.5797 64.1101ZM61.0178 60.7614V64H59.956V56.7273H61.0036V59.4332H61.071C61.1989 59.1397 61.3942 58.9065 61.657 58.7337C61.9197 58.5608 62.263 58.4744 62.6868 58.4744C63.0608 58.4744 63.3875 58.5514 63.6669 58.7053C63.9486 58.8591 64.1664 59.0888 64.3203 59.3942C64.4766 59.6972 64.5547 60.076 64.5547 60.5305V64H63.4929V60.6584C63.4929 60.2583 63.3899 59.9482 63.1839 59.728C62.978 59.5054 62.6915 59.3942 62.3246 59.3942C62.0736 59.3942 61.8487 59.4474 61.6499 59.554C61.4534 59.6605 61.2983 59.8168 61.1847 60.0227C61.0734 60.2263 61.0178 60.4725 61.0178 60.7614Z" fill="white"/>
<path d="M22.6303 74.0909V85H20.3239V76.2802H20.2599L17.7617 77.8462V75.8008L20.4624 74.0909H22.6303ZM25.2231 85V83.3381L29.1063 79.7425C29.4365 79.4229 29.7135 79.1353 29.9372 78.8796C30.1645 78.6239 30.3367 78.3736 30.4539 78.1286C30.5711 77.88 30.6297 77.6119 30.6297 77.3242C30.6297 77.0046 30.5569 76.7294 30.4113 76.4986C30.2657 76.2642 30.0669 76.0849 29.8147 75.9606C29.5626 75.8327 29.2767 75.7688 28.9571 75.7688C28.6233 75.7688 28.3321 75.8363 28.0835 75.9712C27.835 76.1062 27.6432 76.2997 27.5083 76.5518C27.3733 76.804 27.3058 77.104 27.3058 77.4521H25.1166C25.1166 76.7383 25.2781 76.1186 25.6013 75.593C25.9244 75.0675 26.3772 74.6609 26.9596 74.3732C27.542 74.0856 28.2132 73.9418 28.9731 73.9418C29.7544 73.9418 30.4344 74.0803 31.0132 74.3572C31.5956 74.6307 32.0484 75.0107 32.3715 75.4972C32.6947 75.9837 32.8563 76.5412 32.8563 77.1697C32.8563 77.5817 32.7746 77.9883 32.6112 78.3896C32.4514 78.7908 32.1656 79.2365 31.7536 79.7266C31.3417 80.2131 30.7611 80.7972 30.0118 81.479L28.4191 83.0398V83.1143H33.0001V85H25.2231ZM36.019 83.7322C35.6674 83.7322 35.3656 83.608 35.1135 83.3594C34.8649 83.1108 34.7406 82.8089 34.7406 82.4538C34.7406 82.1058 34.8649 81.8075 35.1135 81.5589C35.3656 81.3104 35.6674 81.1861 36.019 81.1861C36.3599 81.1861 36.6582 81.3104 36.9139 81.5589C37.1696 81.8075 37.2974 82.1058 37.2974 82.4538C37.2974 82.6882 37.237 82.9031 37.1163 83.0984C36.9991 83.2901 36.8446 83.4446 36.6529 83.5618C36.4611 83.6754 36.2498 83.7322 36.019 83.7322ZM36.019 78.3789C35.6674 78.3789 35.3656 78.2546 35.1135 78.006C34.8649 77.7575 34.7406 77.4556 34.7406 77.1005C34.7406 76.7525 34.8649 76.456 35.1135 76.2109C35.3656 75.9624 35.6674 75.8381 36.019 75.8381C36.3599 75.8381 36.6582 75.9624 36.9139 76.2109C37.1696 76.456 37.2974 76.7525 37.2974 77.1005C37.2974 77.3384 37.237 77.555 37.1163 77.7504C36.9991 77.9421 36.8446 78.0948 36.6529 78.2085C36.4611 78.3221 36.2498 78.3789 36.019 78.3789ZM43.4165 85.2397C42.5003 85.2362 41.7119 85.0107 41.0514 84.5632C40.3944 84.1158 39.8884 83.4677 39.5333 82.619C39.1817 81.7702 39.0077 80.7493 39.0113 79.5561C39.0113 78.3665 39.1871 77.3526 39.5386 76.5146C39.8937 75.6765 40.3998 75.0391 41.0567 74.6023C41.7172 74.1619 42.5038 73.9418 43.4165 73.9418C44.3291 73.9418 45.1139 74.1619 45.7709 74.6023C46.4314 75.0426 46.9392 75.6818 47.2943 76.5199C47.6494 77.3544 47.8252 78.3665 47.8216 79.5561C47.8216 80.7528 47.6441 81.7756 47.289 82.6243C46.9374 83.473 46.4332 84.1211 45.7762 84.5685C45.1192 85.016 44.3327 85.2397 43.4165 85.2397ZM43.4165 83.3274C44.0415 83.3274 44.5404 83.0131 44.9133 82.3846C45.2861 81.756 45.4708 80.8132 45.4672 79.5561C45.4672 78.7287 45.382 78.0398 45.2116 77.4893C45.0447 76.9389 44.8067 76.5252 44.4978 76.2482C44.1924 75.9712 43.8319 75.8327 43.4165 75.8327C42.795 75.8327 42.2979 76.1435 41.925 76.7649C41.5521 77.3864 41.3639 78.3168 41.3604 79.5561C41.3604 80.3942 41.4438 81.0938 41.6107 81.6548C41.7812 82.2124 42.0209 82.6314 42.3298 82.9119C42.6388 83.1889 43.001 83.3274 43.4165 83.3274ZM53.7436 85.2397C52.8274 85.2362 52.0391 85.0107 51.3786 84.5632C50.7216 84.1158 50.2156 83.4677 49.8604 82.619C49.5089 81.7702 49.3349 80.7493 49.3384 79.5561C49.3384 78.3665 49.5142 77.3526 49.8658 76.5146C50.2209 75.6765 50.7269 75.0391 51.3839 74.6023C52.0444 74.1619 52.831 73.9418 53.7436 73.9418C54.6563 73.9418 55.4411 74.1619 56.098 74.6023C56.7585 75.0426 57.2663 75.6818 57.6214 76.5199C57.9766 77.3544 58.1523 78.3665 58.1488 79.5561C58.1488 80.7528 57.9712 81.7756 57.6161 82.6243C57.2646 83.473 56.7603 84.1211 56.1033 84.5685C55.4464 85.016 54.6598 85.2397 53.7436 85.2397ZM53.7436 83.3274C54.3686 83.3274 54.8675 83.0131 55.2404 82.3846C55.6133 81.756 55.7979 80.8132 55.7944 79.5561C55.7944 78.7287 55.7092 78.0398 55.5387 77.4893C55.3718 76.9389 55.1339 76.5252 54.8249 76.2482C54.5195 75.9712 54.1591 75.8327 53.7436 75.8327C53.1222 75.8327 52.625 76.1435 52.2521 76.7649C51.8793 77.3864 51.6911 78.3168 51.6875 79.5561C51.6875 80.3942 51.771 81.0938 51.9379 81.6548C52.1083 82.2124 52.348 82.6314 52.657 82.9119C52.9659 83.1889 53.3281 83.3274 53.7436 83.3274ZM65.2093 85H62.7377L66.5037 74.0909H69.476L73.2367 85H70.7651L68.0325 76.5838H67.9473L65.2093 85ZM65.0549 80.712H70.8929V82.5124H65.0549V80.712ZM74.5497 74.0909H77.3942L80.3984 81.4205H80.5263L83.5305 74.0909H86.375V85H84.1378V77.8995H84.0472L81.2241 84.9467H79.7006L76.8775 77.8729H76.7869V85H74.5497V74.0909Z" fill="white"/>
<defs>
<clipPath id="clip0_686_1696">
<rect width="33" height="32" fill="white" transform="translate(33 12)"/>
</clipPath>
</defs>
</svg>
