<svg width="99" height="100" viewBox="0 0 99 100" fill="none" xmlns="http://www.w3.org/2000/svg">
<rect width="99" height="100" rx="8" fill="#382A73"/>
<g clip-path="url(#clip0_686_1702)">
<path d="M57.3375 29.7212H57.3458C58.0167 29.7212 58.674 29.6622 59.3104 29.5492L59.2448 29.5592C58.051 33.6812 54.176 36.6572 49.5771 36.6572H49.5167H49.5198C43.9542 36.6512 39.4437 32.3212 39.4385 26.9782C39.4516 24.876 40.1713 22.8331 41.4906 21.1553C42.8098 19.4774 44.6581 18.2533 46.7604 17.6652L46.8323 17.6482C46.7184 18.2483 46.662 18.8572 46.6635 19.4672V19.4742C46.6687 25.1322 51.4448 29.7172 57.3375 29.7222V29.7212ZM49.5062 15.4702C49.3822 15.3094 49.217 15.1822 49.0266 15.1007C48.8363 15.0192 48.6273 14.9863 48.4198 15.0052H48.425C42.0135 15.5962 37.0354 20.7242 37 26.9762V26.9792C37.0083 33.6142 42.6094 38.9912 49.5198 39.0002H49.5833C56.0865 39.0002 61.424 34.2142 61.9844 28.1112L61.9875 28.0662C62.0054 27.8762 61.9747 27.685 61.8979 27.5091C61.8211 27.3332 61.7005 27.178 61.5469 27.0572L61.5448 27.0552C61.3897 26.9326 61.2053 26.849 61.0082 26.8119C60.8111 26.7747 60.6075 26.7851 60.4156 26.8422L60.424 26.8402L59.8781 26.9962C59.0595 27.2538 58.2032 27.3838 57.3417 27.3812H57.3344C55.1518 27.3788 53.0593 26.5454 51.516 25.0638C49.9727 23.5822 49.1046 21.5734 49.1021 19.4782V19.4602C49.1021 18.4302 49.3083 17.4462 49.6833 16.5452L49.6635 16.5982C49.7402 16.4117 49.7655 16.2095 49.7373 16.0109C49.709 15.8123 49.628 15.624 49.5021 15.4642L49.5042 15.4672L49.5062 15.4702Z" fill="#FFE600"/>
</g>
<path d="M36.1534 64H33.799V56.7273H36.228C36.9406 56.7273 37.5526 56.8729 38.0639 57.1641C38.5753 57.4529 38.9671 57.8684 39.2393 58.4105C39.514 58.9503 39.6513 59.5978 39.6513 60.353C39.6513 61.1106 39.5128 61.7616 39.2358 62.3061C38.9612 62.8506 38.5634 63.2696 38.0426 63.5632C37.5218 63.8544 36.892 64 36.1534 64ZM34.8963 63.0412H36.093C36.647 63.0412 37.1075 62.937 37.4744 62.7287C37.8414 62.518 38.116 62.2138 38.2983 61.8161C38.4806 61.416 38.5717 60.9283 38.5717 60.353C38.5717 59.7824 38.4806 59.2983 38.2983 58.9006C38.1184 58.5028 37.8497 58.201 37.4922 57.995C37.1347 57.7891 36.6908 57.6861 36.1605 57.6861H34.8963V63.0412ZM40.9306 64V58.5455H41.9924V64H40.9306ZM41.4668 57.7038C41.2821 57.7038 41.1235 57.6423 40.9909 57.5192C40.8607 57.3937 40.7956 57.2446 40.7956 57.0717C40.7956 56.8965 40.8607 56.7474 40.9909 56.6243C41.1235 56.4988 41.2821 56.4361 41.4668 56.4361C41.6515 56.4361 41.8089 56.4988 41.9391 56.6243C42.0717 56.7474 42.138 56.8965 42.138 57.0717C42.138 57.2446 42.0717 57.3937 41.9391 57.5192C41.8089 57.6423 41.6515 57.7038 41.4668 57.7038ZM44.4826 60.7614V64H43.4208V58.5455H44.44V59.4332H44.5075C44.6329 59.1444 44.8294 58.9124 45.0969 58.7372C45.3668 58.562 45.7066 58.4744 46.1161 58.4744C46.4878 58.4744 46.8133 58.5526 47.0927 58.7088C47.372 58.8627 47.5887 59.0923 47.7425 59.3977C47.8964 59.7031 47.9734 60.0807 47.9734 60.5305V64H46.9116V60.6584C46.9116 60.263 46.8086 59.9541 46.6026 59.7315C46.3967 59.5066 46.1138 59.3942 45.7539 59.3942C45.5077 59.3942 45.2887 59.4474 45.0969 59.554C44.9076 59.6605 44.7572 59.8168 44.646 60.0227C44.5371 60.2263 44.4826 60.4725 44.4826 60.7614ZM50.4592 60.7614V64H49.3974V58.5455H50.4165V59.4332H50.484C50.6095 59.1444 50.806 58.9124 51.0735 58.7372C51.3434 58.562 51.6831 58.4744 52.0927 58.4744C52.4644 58.4744 52.7899 58.5526 53.0692 58.7088C53.3486 58.8627 53.5652 59.0923 53.7191 59.3977C53.873 59.7031 53.9499 60.0807 53.9499 60.5305V64H52.8881V60.6584C52.8881 60.263 52.7852 59.9541 52.5792 59.7315C52.3732 59.5066 52.0903 59.3942 51.7305 59.3942C51.4843 59.3942 51.2653 59.4474 51.0735 59.554C50.8841 59.6605 50.7338 59.8168 50.6225 60.0227C50.5136 60.2263 50.4592 60.4725 50.4592 60.7614ZM57.7248 64.1101C57.1874 64.1101 56.7246 63.9953 56.3363 63.7656C55.9504 63.5336 55.6521 63.2081 55.4414 62.7891C55.2331 62.3677 55.1289 61.8741 55.1289 61.3082C55.1289 60.7495 55.2331 60.2571 55.4414 59.831C55.6521 59.4048 55.9457 59.0722 56.3221 58.8331C56.7009 58.594 57.1436 58.4744 57.6502 58.4744C57.958 58.4744 58.2563 58.5253 58.5451 58.6271C58.8339 58.7289 59.0932 58.8887 59.3228 59.1065C59.5524 59.3243 59.7335 59.6072 59.8661 59.9553C59.9987 60.3009 60.065 60.7211 60.065 61.2159V61.5923H55.729V60.7969H59.0245C59.0245 60.5175 58.9677 60.2701 58.854 60.0547C58.7404 59.8369 58.5806 59.6652 58.3746 59.5398C58.171 59.4143 57.9319 59.3516 57.6573 59.3516C57.359 59.3516 57.0986 59.425 56.8761 59.5717C56.6559 59.7161 56.4854 59.9055 56.3647 60.1399C56.2463 60.3719 56.1871 60.6241 56.1871 60.8963V61.5178C56.1871 61.8823 56.2511 62.1925 56.3789 62.4482C56.5091 62.7038 56.6902 62.8991 56.9222 63.0341C57.1542 63.1667 57.4253 63.233 57.7354 63.233C57.9367 63.233 58.1201 63.2045 58.2859 63.1477C58.4516 63.0885 58.5948 63.0009 58.7156 62.8849C58.8363 62.7689 58.9286 62.6257 58.9925 62.4553L59.9975 62.6364C59.917 62.9323 59.7726 63.1915 59.5643 63.4141C59.3583 63.6342 59.0991 63.8059 58.7866 63.929C58.4764 64.0497 58.1225 64.1101 57.7248 64.1101ZM61.2431 64V58.5455H62.2694V59.4119H62.3262C62.4256 59.1184 62.6008 58.8875 62.8517 58.7195C63.1051 58.549 63.3915 58.4638 63.7111 58.4638C63.7774 58.4638 63.8555 58.4661 63.9455 58.4709C64.0378 58.4756 64.11 58.4815 64.1621 58.4886V59.5043C64.1195 59.4924 64.0437 59.4794 63.9348 59.4652C63.8259 59.4486 63.717 59.4403 63.6081 59.4403C63.3572 59.4403 63.1335 59.4936 62.937 59.6001C62.7428 59.7043 62.589 59.8499 62.4753 60.0369C62.3617 60.2216 62.3049 60.4323 62.3049 60.669V64H61.2431Z" fill="white"/>
<path d="M24.3157 85L28.8381 76.0511V75.9766H23.57V74.0909H31.2244V76.0032L26.6967 85H24.3157ZM33.6401 83.7322C33.2885 83.7322 32.9867 83.608 32.7346 83.3594C32.486 83.1108 32.3617 82.8089 32.3617 82.4538C32.3617 82.1058 32.486 81.8075 32.7346 81.5589C32.9867 81.3104 33.2885 81.1861 33.6401 81.1861C33.981 81.1861 34.2793 81.3104 34.535 81.5589C34.7907 81.8075 34.9185 82.1058 34.9185 82.4538C34.9185 82.6882 34.8581 82.9031 34.7374 83.0984C34.6202 83.2901 34.4657 83.4446 34.274 83.5618C34.0822 83.6754 33.8709 83.7322 33.6401 83.7322ZM33.6401 78.3789C33.2885 78.3789 32.9867 78.2546 32.7346 78.006C32.486 77.7575 32.3617 77.4556 32.3617 77.1005C32.3617 76.7525 32.486 76.456 32.7346 76.2109C32.9867 75.9624 33.2885 75.8381 33.6401 75.8381C33.981 75.8381 34.2793 75.9624 34.535 76.2109C34.7907 76.456 34.9185 76.7525 34.9185 77.1005C34.9185 77.3384 34.8581 77.555 34.7374 77.7504C34.6202 77.9421 34.4657 78.0948 34.274 78.2085C34.0822 78.3221 33.8709 78.3789 33.6401 78.3789ZM41.0376 85.2397C40.1214 85.2362 39.333 85.0107 38.6725 84.5632C38.0155 84.1158 37.5095 83.4677 37.1544 82.619C36.8028 81.7702 36.6288 80.7493 36.6324 79.5561C36.6324 78.3665 36.8081 77.3526 37.1597 76.5146C37.5148 75.6765 38.0209 75.0391 38.6778 74.6023C39.3383 74.1619 40.1249 73.9418 41.0376 73.9418C41.9502 73.9418 42.735 74.1619 43.392 74.6023C44.0525 75.0426 44.5603 75.6818 44.9154 76.5199C45.2705 77.3544 45.4463 78.3665 45.4427 79.5561C45.4427 80.7528 45.2652 81.7756 44.9101 82.6243C44.5585 83.473 44.0542 84.1211 43.3973 84.5685C42.7403 85.016 41.9537 85.2397 41.0376 85.2397ZM41.0376 83.3274C41.6626 83.3274 42.1615 83.0131 42.5344 82.3846C42.9072 81.756 43.0919 80.8132 43.0883 79.5561C43.0883 78.7287 43.0031 78.0398 42.8327 77.4893C42.6657 76.9389 42.4278 76.5252 42.1189 76.2482C41.8135 75.9712 41.453 75.8327 41.0376 75.8327C40.4161 75.8327 39.9189 76.1435 39.5461 76.7649C39.1732 77.3864 38.985 78.3168 38.9814 79.5561C38.9814 80.3942 39.0649 81.0938 39.2318 81.6548C39.4023 82.2124 39.642 82.6314 39.9509 82.9119C40.2599 83.1889 40.6221 83.3274 41.0376 83.3274ZM51.3647 85.2397C50.4485 85.2362 49.6602 85.0107 48.9996 84.5632C48.3427 84.1158 47.8366 83.4677 47.4815 82.619C47.13 81.7702 46.956 80.7493 46.9595 79.5561C46.9595 78.3665 47.1353 77.3526 47.4869 76.5146C47.842 75.6765 48.348 75.0391 49.005 74.6023C49.6655 74.1619 50.4521 73.9418 51.3647 73.9418C52.2773 73.9418 53.0621 74.1619 53.7191 74.6023C54.3796 75.0426 54.8874 75.6818 55.2425 76.5199C55.5977 77.3544 55.7734 78.3665 55.7699 79.5561C55.7699 80.7528 55.5923 81.7756 55.2372 82.6243C54.8857 83.473 54.3814 84.1211 53.7244 84.5685C53.0675 85.016 52.2809 85.2397 51.3647 85.2397ZM51.3647 83.3274C51.9897 83.3274 52.4886 83.0131 52.8615 82.3846C53.2344 81.756 53.419 80.8132 53.4155 79.5561C53.4155 78.7287 53.3303 78.0398 53.1598 77.4893C52.9929 76.9389 52.755 76.5252 52.446 76.2482C52.1406 75.9712 51.7802 75.8327 51.3647 75.8327C50.7433 75.8327 50.2461 76.1435 49.8732 76.7649C49.5004 77.3864 49.3121 78.3168 49.3086 79.5561C49.3086 80.3942 49.392 81.0938 49.5589 81.6548C49.7294 82.2124 49.9691 82.6314 50.2781 82.9119C50.587 83.1889 50.9492 83.3274 51.3647 83.3274ZM60.9501 85V74.0909H65.2541C66.0815 74.0909 66.7864 74.2489 67.3688 74.565C67.9512 74.8775 68.3951 75.3125 68.7005 75.87C69.0094 76.424 69.1639 77.0632 69.1639 77.7876C69.1639 78.5121 69.0076 79.1513 68.6951 79.7053C68.3826 80.2592 67.9299 80.6907 67.3368 80.9996C66.7473 81.3086 66.0336 81.4631 65.1955 81.4631H62.4522V79.6147H64.8226C65.2665 79.6147 65.6323 79.5384 65.9199 79.3857C66.2111 79.2294 66.4277 79.0146 66.5698 78.7411C66.7154 78.4641 66.7882 78.1463 66.7882 77.7876C66.7882 77.4254 66.7154 77.1094 66.5698 76.8395C66.4277 76.5661 66.2111 76.3548 65.9199 76.2056C65.6287 76.0529 65.2594 75.9766 64.812 75.9766H63.2566V85H60.9501ZM70.662 74.0909H73.5065L76.5107 81.4205H76.6386L79.6428 74.0909H82.4873V85H80.2501V77.8995H80.1595L77.3364 84.9467H75.8129L72.9898 77.8729H72.8992V85H70.662V74.0909Z" fill="white"/>
<defs>
<clipPath id="clip0_686_1702">
<rect width="25" height="24" fill="white" transform="translate(37 15)"/>
</clipPath>
</defs>
</svg>
