<svg width="99" height="100" viewBox="0 0 99 100" fill="none" xmlns="http://www.w3.org/2000/svg">
<rect width="99" height="100" rx="8" fill="#EE8C55"/>
<path d="M33.125 39H66.875C67.1734 39 67.4595 39.1185 67.6705 39.3295C67.8815 39.5405 68 39.8266 68 40.125C68 40.4234 67.8815 40.7095 67.6705 40.9205C67.4595 41.1315 67.1734 41.25 66.875 41.25H33.125C32.8266 41.25 32.5405 41.1315 32.3295 40.9205C32.1185 40.7095 32 40.4234 32 40.125C32 39.8266 32.1185 39.5405 32.3295 39.3295C32.5405 39.1185 32.8266 39 33.125 39ZM37.6745 35.625C37.9507 32.5467 39.3687 29.6832 41.6496 27.5977C43.9306 25.5122 46.9094 24.3557 50 24.3557C53.0906 24.3557 56.0694 25.5122 58.3504 27.5977C60.6313 29.6832 62.0493 32.5467 62.3255 35.625H60.0642C59.7915 33.1464 58.6137 30.8556 56.7566 29.1916C54.8994 27.5276 52.4936 26.6075 50 26.6075C47.5064 26.6075 45.1006 27.5276 43.2434 29.1916C41.3863 30.8556 40.2085 33.1464 39.9358 35.625H37.6745ZM50 16.5C50.2984 16.5 50.5845 16.6185 50.7955 16.8295C51.0065 17.0405 51.125 17.3266 51.125 17.625V21C51.125 21.2984 51.0065 21.5845 50.7955 21.7955C50.5845 22.0065 50.2984 22.125 50 22.125C49.7016 22.125 49.4155 22.0065 49.2045 21.7955C48.9935 21.5845 48.875 21.2984 48.875 21V17.625C48.875 17.3266 48.9935 17.0405 49.2045 16.8295C49.4155 16.6185 49.7016 16.5 50 16.5ZM64.319 22.431C64.5299 22.642 64.6484 22.9281 64.6484 23.2264C64.6484 23.5247 64.5299 23.8108 64.319 24.0217L61.934 26.4067C61.8302 26.5142 61.7061 26.5999 61.5688 26.6589C61.4316 26.7178 61.284 26.7489 61.1346 26.7502C60.9852 26.7515 60.8371 26.723 60.6988 26.6664C60.5605 26.6099 60.4349 26.5263 60.3293 26.4207C60.2237 26.3151 60.1401 26.1895 60.0836 26.0512C60.027 25.9129 59.9985 25.7648 59.9998 25.6154C60.0011 25.466 60.0322 25.3184 60.0911 25.1812C60.1501 25.0439 60.2358 24.9198 60.3433 24.816L62.7282 22.431C62.9392 22.2201 63.2253 22.1016 63.5236 22.1016C63.8219 22.1016 64.108 22.2201 64.319 22.431ZM35.681 22.431C35.892 22.2201 36.1781 22.1016 36.4764 22.1016C36.7747 22.1016 37.0608 22.2201 37.2717 22.431L39.6568 24.816C39.7642 24.9198 39.8499 25.0439 39.9089 25.1812C39.9678 25.3184 39.9989 25.466 40.0002 25.6154C40.0015 25.7648 39.973 25.9129 39.9164 26.0512C39.8599 26.1895 39.7763 26.3151 39.6707 26.4207C39.5651 26.5263 39.4395 26.6099 39.3012 26.6664C39.1629 26.723 39.0148 26.7515 38.8654 26.7502C38.716 26.7489 38.5684 26.7178 38.4312 26.6589C38.2939 26.5999 38.1698 26.5142 38.066 26.4067L35.681 24.0217C35.4701 23.8108 35.3516 23.5247 35.3516 23.2264C35.3516 22.9281 35.4701 22.642 35.681 22.431Z" fill="#FFE600"/>
<path d="M27.799 64V56.7273H30.4624C30.9785 56.7273 31.4058 56.8125 31.7443 56.983C32.0829 57.151 32.3362 57.3795 32.5043 57.6683C32.6723 57.9548 32.7564 58.2779 32.7564 58.6378C32.7564 58.9408 32.7008 59.1965 32.5895 59.4048C32.4782 59.6108 32.3291 59.7765 32.142 59.902C31.9574 60.0251 31.7538 60.1151 31.5312 60.1719V60.2429C31.7727 60.2547 32.0083 60.3329 32.2379 60.4773C32.4699 60.6193 32.6617 60.8217 32.8132 61.0845C32.9647 61.3473 33.0405 61.6669 33.0405 62.0433C33.0405 62.415 32.9529 62.7488 32.7777 63.0447C32.6049 63.3383 32.3374 63.5715 31.9751 63.7443C31.6129 63.9148 31.1501 64 30.5866 64H27.799ZM28.8963 63.0589H30.4801C31.0057 63.0589 31.3821 62.9571 31.6094 62.7536C31.8366 62.55 31.9503 62.2955 31.9503 61.9901C31.9503 61.7604 31.8923 61.5497 31.7763 61.358C31.6603 61.1662 31.4946 61.0135 31.2791 60.8999C31.0661 60.7862 30.8127 60.7294 30.5192 60.7294H28.8963V63.0589ZM28.8963 59.8736H30.3665C30.6127 59.8736 30.834 59.8262 31.0305 59.7315C31.2294 59.6368 31.3868 59.5043 31.5028 59.3338C31.6212 59.161 31.6804 58.9574 31.6804 58.723C31.6804 58.4223 31.575 58.1702 31.3643 57.9666C31.1536 57.763 30.8305 57.6612 30.3949 57.6612H28.8963V59.8736ZM34.2567 64V58.5455H35.283V59.4119H35.3398C35.4393 59.1184 35.6145 58.8875 35.8654 58.7195C36.1187 58.549 36.4052 58.4638 36.7248 58.4638C36.7911 58.4638 36.8692 58.4661 36.9592 58.4709C37.0515 58.4756 37.1237 58.4815 37.1758 58.4886V59.5043C37.1332 59.4924 37.0574 59.4794 36.9485 59.4652C36.8396 59.4486 36.7307 59.4403 36.6218 59.4403C36.3709 59.4403 36.1471 59.4936 35.9506 59.6001C35.7565 59.7043 35.6026 59.8499 35.489 60.0369C35.3754 60.2216 35.3185 60.4323 35.3185 60.669V64H34.2567ZM40.2502 64.1101C39.7128 64.1101 39.2499 63.9953 38.8617 63.7656C38.4758 63.5336 38.1775 63.2081 37.9668 62.7891C37.7585 62.3677 37.6543 61.8741 37.6543 61.3082C37.6543 60.7495 37.7585 60.2571 37.9668 59.831C38.1775 59.4048 38.4711 59.0722 38.8475 58.8331C39.2263 58.594 39.669 58.4744 40.1756 58.4744C40.4834 58.4744 40.7817 58.5253 41.0705 58.6271C41.3593 58.7289 41.6185 58.8887 41.8482 59.1065C42.0778 59.3243 42.2589 59.6072 42.3915 59.9553C42.5241 60.3009 42.5904 60.7211 42.5904 61.2159V61.5923H38.2544V60.7969H41.5499C41.5499 60.5175 41.4931 60.2701 41.3794 60.0547C41.2658 59.8369 41.106 59.6652 40.9 59.5398C40.6964 59.4143 40.4573 59.3516 40.1827 59.3516C39.8844 59.3516 39.624 59.425 39.4015 59.5717C39.1813 59.7161 39.0108 59.9055 38.8901 60.1399C38.7717 60.3719 38.7125 60.6241 38.7125 60.8963V61.5178C38.7125 61.8823 38.7765 62.1925 38.9043 62.4482C39.0345 62.7038 39.2156 62.8991 39.4476 63.0341C39.6796 63.1667 39.9507 63.233 40.2608 63.233C40.4621 63.233 40.6455 63.2045 40.8113 63.1477C40.977 63.0885 41.1202 63.0009 41.2409 62.8849C41.3617 62.7689 41.454 62.6257 41.5179 62.4553L42.5229 62.6364C42.4424 62.9323 42.298 63.1915 42.0897 63.4141C41.8837 63.6342 41.6245 63.8059 41.312 63.929C41.0018 64.0497 40.6479 64.1101 40.2502 64.1101ZM45.3558 64.1207C45.0102 64.1207 44.6977 64.0568 44.4183 63.929C44.139 63.7988 43.9176 63.6106 43.7543 63.3643C43.5933 63.1181 43.5128 62.8163 43.5128 62.4588C43.5128 62.151 43.572 61.8977 43.6903 61.6989C43.8087 61.5 43.9685 61.3426 44.1697 61.2266C44.371 61.1106 44.5959 61.023 44.8445 60.9638C45.093 60.9046 45.3464 60.8596 45.6044 60.8288C45.9311 60.791 46.1963 60.7602 46.3999 60.7365C46.6035 60.7105 46.7514 60.669 46.8438 60.6122C46.9361 60.5554 46.9822 60.4631 46.9822 60.3352V60.3104C46.9822 60.0002 46.8946 59.7599 46.7195 59.5895C46.5466 59.419 46.2886 59.3338 45.9453 59.3338C45.5878 59.3338 45.3061 59.4131 45.1001 59.5717C44.8965 59.728 44.7557 59.902 44.6776 60.0938L43.6797 59.8665C43.7981 59.535 43.9709 59.2675 44.1982 59.0639C44.4278 58.858 44.6918 58.7088 44.9901 58.6165C45.2884 58.5218 45.602 58.4744 45.9311 58.4744C46.1489 58.4744 46.3797 58.5005 46.6236 58.5526C46.8698 58.6023 47.0994 58.6946 47.3125 58.8295C47.5279 58.9645 47.7043 59.1574 47.8416 59.4084C47.9789 59.657 48.0476 59.9801 48.0476 60.3778V64H47.0107V63.2543H46.968C46.8994 63.3916 46.7964 63.5265 46.6591 63.6591C46.5218 63.7917 46.3454 63.9018 46.13 63.9893C45.9145 64.0769 45.6565 64.1207 45.3558 64.1207ZM45.5866 63.2685C45.8802 63.2685 46.1312 63.2105 46.3395 63.0945C46.5502 62.9785 46.71 62.8269 46.8189 62.6399C46.9302 62.4505 46.9858 62.2481 46.9858 62.0327V61.3295C46.9479 61.3674 46.8745 61.4029 46.7656 61.4361C46.6591 61.4669 46.5372 61.4941 46.3999 61.5178C46.2625 61.5391 46.1288 61.5592 45.9986 61.5781C45.8684 61.5947 45.7595 61.6089 45.6719 61.6207C45.4659 61.6468 45.2777 61.6906 45.1072 61.7521C44.9392 61.8137 44.8042 61.9025 44.7024 62.0185C44.603 62.1321 44.5533 62.2836 44.5533 62.473C44.5533 62.7358 44.6503 62.9347 44.8445 63.0696C45.0386 63.2022 45.286 63.2685 45.5866 63.2685ZM50.4384 62.1499L50.4313 60.8537H50.6159L52.7892 58.5455H54.0605L51.5819 61.1733H51.415L50.4384 62.1499ZM49.4618 64V56.7273H50.5236V64H49.4618ZM52.9064 64L50.9533 61.4077L51.6848 60.6655L54.2097 64H52.9064ZM57.6241 58.5455V59.3977H54.5417V58.5455H57.6241ZM55.3869 64V57.9134C55.3869 57.5724 55.4615 57.2895 55.6106 57.0646C55.7598 56.8374 55.9574 56.6681 56.2037 56.5568C56.4499 56.4432 56.7174 56.3864 57.0062 56.3864C57.2193 56.3864 57.4016 56.4041 57.5531 56.4396C57.7046 56.4728 57.8171 56.5036 57.8904 56.532L57.6419 57.3913C57.5922 57.3771 57.5282 57.3606 57.4501 57.3416C57.372 57.3203 57.2773 57.3097 57.166 57.3097C56.908 57.3097 56.7233 57.3736 56.612 57.5014C56.5031 57.6293 56.4487 57.8139 56.4487 58.0554V64H55.3869ZM60.141 64.1207C59.7953 64.1207 59.4828 64.0568 59.2035 63.929C58.9241 63.7988 58.7028 63.6106 58.5394 63.3643C58.3784 63.1181 58.2979 62.8163 58.2979 62.4588C58.2979 62.151 58.3571 61.8977 58.4755 61.6989C58.5939 61.5 58.7537 61.3426 58.9549 61.2266C59.1561 61.1106 59.381 61.023 59.6296 60.9638C59.8782 60.9046 60.1315 60.8596 60.3896 60.8288C60.7163 60.791 60.9814 60.7602 61.185 60.7365C61.3886 60.7105 61.5366 60.669 61.6289 60.6122C61.7212 60.5554 61.7674 60.4631 61.7674 60.3352V60.3104C61.7674 60.0002 61.6798 59.7599 61.5046 59.5895C61.3318 59.419 61.0737 59.3338 60.7305 59.3338C60.373 59.3338 60.0913 59.4131 59.8853 59.5717C59.6817 59.728 59.5408 59.902 59.4627 60.0938L58.4648 59.8665C58.5832 59.535 58.756 59.2675 58.9833 59.0639C59.2129 58.858 59.4769 58.7088 59.7752 58.6165C60.0735 58.5218 60.3872 58.4744 60.7163 58.4744C60.9341 58.4744 61.1649 58.5005 61.4087 58.5526C61.6549 58.6023 61.8846 58.6946 62.0977 58.8295C62.3131 58.9645 62.4895 59.1574 62.6268 59.4084C62.7641 59.657 62.8327 59.9801 62.8327 60.3778V64H61.7958V63.2543H61.7532C61.6845 63.3916 61.5816 63.5265 61.4442 63.6591C61.3069 63.7917 61.1306 63.9018 60.9151 63.9893C60.6997 64.0769 60.4416 64.1207 60.141 64.1207ZM60.3718 63.2685C60.6654 63.2685 60.9163 63.2105 61.1246 63.0945C61.3353 62.9785 61.4951 62.8269 61.604 62.6399C61.7153 62.4505 61.771 62.2481 61.771 62.0327V61.3295C61.7331 61.3674 61.6597 61.4029 61.5508 61.4361C61.4442 61.4669 61.3223 61.4941 61.185 61.5178C61.0477 61.5391 60.9139 61.5592 60.7837 61.5781C60.6535 61.5947 60.5446 61.6089 60.457 61.6207C60.2511 61.6468 60.0629 61.6906 59.8924 61.7521C59.7243 61.8137 59.5894 61.9025 59.4876 62.0185C59.3881 62.1321 59.3384 62.2836 59.3384 62.473C59.3384 62.7358 59.4355 62.9347 59.6296 63.0696C59.8237 63.2022 60.0711 63.2685 60.3718 63.2685ZM68.3343 59.8771L67.372 60.0476C67.3317 59.9245 67.2678 59.8073 67.1802 59.696C67.095 59.5848 66.979 59.4936 66.8322 59.4226C66.6854 59.3516 66.502 59.3161 66.2818 59.3161C65.9811 59.3161 65.7302 59.3835 65.5289 59.5185C65.3277 59.651 65.2271 59.8227 65.2271 60.0334C65.2271 60.2157 65.2946 60.3625 65.4295 60.4737C65.5645 60.585 65.7823 60.6761 66.0829 60.7472L66.9494 60.946C67.4513 61.062 67.8253 61.2408 68.0716 61.4822C68.3178 61.7237 68.4409 62.0374 68.4409 62.4233C68.4409 62.75 68.3462 63.0412 68.1568 63.2969C67.9698 63.5502 67.7082 63.7491 67.372 63.8935C67.0382 64.0379 66.6511 64.1101 66.2108 64.1101C65.6 64.1101 65.1016 63.9799 64.7157 63.7195C64.3298 63.4567 64.0931 63.0838 64.0055 62.6009L65.0318 62.4446C65.0957 62.7121 65.2271 62.9145 65.426 63.0518C65.6248 63.1868 65.8841 63.2543 66.2037 63.2543C66.5517 63.2543 66.8298 63.1821 67.0382 63.0376C67.2465 62.8909 67.3507 62.7121 67.3507 62.5014C67.3507 62.331 67.2868 62.1877 67.1589 62.0717C67.0334 61.9557 66.8405 61.8681 66.5801 61.8089L65.6568 61.6065C65.1478 61.4905 64.7714 61.3059 64.5275 61.0526C64.286 60.7992 64.1653 60.4785 64.1653 60.0902C64.1653 59.7682 64.2553 59.4865 64.4352 59.245C64.6151 59.0036 64.8637 58.8153 65.1809 58.6804C65.4982 58.5431 65.8616 58.4744 66.2711 58.4744C66.8606 58.4744 67.3246 58.6023 67.6632 58.858C68.0017 59.1113 68.2254 59.451 68.3343 59.8771ZM72.1545 58.5455V59.3977H69.1751V58.5455H72.1545ZM69.9741 57.2386H71.0359V62.3984C71.0359 62.6044 71.0666 62.7595 71.1282 62.8636C71.1897 62.9654 71.2691 63.0353 71.3661 63.0732C71.4656 63.1087 71.5733 63.1264 71.6893 63.1264C71.7745 63.1264 71.8491 63.1205 71.913 63.1087C71.9769 63.0968 72.0266 63.0874 72.0621 63.0803L72.2539 63.9574C72.1924 63.9811 72.1048 64.0047 71.9911 64.0284C71.8775 64.0545 71.7354 64.0687 71.565 64.071C71.2856 64.0758 71.0252 64.026 70.7837 63.9219C70.5423 63.8177 70.3469 63.6567 70.1978 63.4389C70.0487 63.2211 69.9741 62.9477 69.9741 62.6186V57.2386Z" fill="white"/>
<path d="M20.3157 85L24.8381 76.0511V75.9766H19.57V74.0909H27.2244V76.0032L22.6967 85H20.3157ZM29.6401 83.7322C29.2885 83.7322 28.9867 83.608 28.7346 83.3594C28.486 83.1108 28.3617 82.8089 28.3617 82.4538C28.3617 82.1058 28.486 81.8075 28.7346 81.5589C28.9867 81.3104 29.2885 81.1861 29.6401 81.1861C29.981 81.1861 30.2793 81.3104 30.535 81.5589C30.7907 81.8075 30.9185 82.1058 30.9185 82.4538C30.9185 82.6882 30.8581 82.9031 30.7374 83.0984C30.6202 83.2901 30.4657 83.4446 30.274 83.5618C30.0822 83.6754 29.8709 83.7322 29.6401 83.7322ZM29.6401 78.3789C29.2885 78.3789 28.9867 78.2546 28.7346 78.006C28.486 77.7575 28.3617 77.4556 28.3617 77.1005C28.3617 76.7525 28.486 76.456 28.7346 76.2109C28.9867 75.9624 29.2885 75.8381 29.6401 75.8381C29.981 75.8381 30.2793 75.9624 30.535 76.2109C30.7907 76.456 30.9185 76.7525 30.9185 77.1005C30.9185 77.3384 30.8581 77.555 30.7374 77.7504C30.6202 77.9421 30.4657 78.0948 30.274 78.2085C30.0822 78.3221 29.8709 78.3789 29.6401 78.3789ZM37.0376 85.2397C36.1214 85.2362 35.333 85.0107 34.6725 84.5632C34.0155 84.1158 33.5095 83.4677 33.1544 82.619C32.8028 81.7702 32.6288 80.7493 32.6324 79.5561C32.6324 78.3665 32.8081 77.3526 33.1597 76.5146C33.5148 75.6765 34.0209 75.0391 34.6778 74.6023C35.3383 74.1619 36.1249 73.9418 37.0376 73.9418C37.9502 73.9418 38.735 74.1619 39.392 74.6023C40.0525 75.0426 40.5603 75.6818 40.9154 76.5199C41.2705 77.3544 41.4463 78.3665 41.4427 79.5561C41.4427 80.7528 41.2652 81.7756 40.9101 82.6243C40.5585 83.473 40.0542 84.1211 39.3973 84.5685C38.7403 85.016 37.9537 85.2397 37.0376 85.2397ZM37.0376 83.3274C37.6626 83.3274 38.1615 83.0131 38.5344 82.3846C38.9072 81.756 39.0919 80.8132 39.0883 79.5561C39.0883 78.7287 39.0031 78.0398 38.8327 77.4893C38.6657 76.9389 38.4278 76.5252 38.1189 76.2482C37.8135 75.9712 37.453 75.8327 37.0376 75.8327C36.4161 75.8327 35.9189 76.1435 35.5461 76.7649C35.1732 77.3864 34.985 78.3168 34.9814 79.5561C34.9814 80.3942 35.0649 81.0938 35.2318 81.6548C35.4023 82.2124 35.642 82.6314 35.9509 82.9119C36.2599 83.1889 36.6221 83.3274 37.0376 83.3274ZM47.3647 85.2397C46.4485 85.2362 45.6602 85.0107 44.9996 84.5632C44.3427 84.1158 43.8366 83.4677 43.4815 82.619C43.13 81.7702 42.956 80.7493 42.9595 79.5561C42.9595 78.3665 43.1353 77.3526 43.4869 76.5146C43.842 75.6765 44.348 75.0391 45.005 74.6023C45.6655 74.1619 46.4521 73.9418 47.3647 73.9418C48.2773 73.9418 49.0621 74.1619 49.7191 74.6023C50.3796 75.0426 50.8874 75.6818 51.2425 76.5199C51.5977 77.3544 51.7734 78.3665 51.7699 79.5561C51.7699 80.7528 51.5923 81.7756 51.2372 82.6243C50.8857 83.473 50.3814 84.1211 49.7244 84.5685C49.0675 85.016 48.2809 85.2397 47.3647 85.2397ZM47.3647 83.3274C47.9897 83.3274 48.4886 83.0131 48.8615 82.3846C49.2344 81.756 49.419 80.8132 49.4155 79.5561C49.4155 78.7287 49.3303 78.0398 49.1598 77.4893C48.9929 76.9389 48.755 76.5252 48.446 76.2482C48.1406 75.9712 47.7802 75.8327 47.3647 75.8327C46.7433 75.8327 46.2461 76.1435 45.8732 76.7649C45.5004 77.3864 45.3121 78.3168 45.3086 79.5561C45.3086 80.3942 45.392 81.0938 45.5589 81.6548C45.7294 82.2124 45.9691 82.6314 46.2781 82.9119C46.587 83.1889 46.9492 83.3274 47.3647 83.3274ZM58.8304 85H56.3588L60.1248 74.0909H63.0971L66.8578 85H64.3862L61.6536 76.5838H61.5684L58.8304 85ZM58.676 80.712H64.514V82.5124H58.676V80.712ZM68.1708 74.0909H71.0153L74.0195 81.4205H74.1474L77.1516 74.0909H79.9961V85H77.7589V77.8995H77.6683L74.8452 84.9467H73.3217L70.4986 77.8729H70.408V85H68.1708V74.0909Z" fill="white"/>
</svg>
