<svg width="681" height="560" viewBox="0 0 681 560" fill="none" xmlns="http://www.w3.org/2000/svg">
<g clip-path="url(#clip0_589_191)">
<path d="M810.369 134.393H109.57V500.795H810.369V134.393Z" fill="#EEE8D3"/>
<path d="M810.369 134.393H109.57V500.795H810.369V134.393Z" fill="white"/>
<path d="M510.706 177.613H165.095V435.205H510.706V177.613Z" fill="#F9A54B"/>
<path d="M499.394 169.164H176.426V409.896H499.394V169.164Z" fill="#BAE6E8"/>
<path d="M345.221 166.459H330.6V424.732H345.221V166.459Z" fill="#FFBC70"/>
<path d="M533.095 432.012C533.095 439.079 527.371 444.822 520.304 444.822H157.094C150.027 444.822 144.303 439.098 144.303 432.012C144.303 424.925 150.027 419.201 157.094 419.201H520.284C527.352 419.201 533.075 424.925 533.075 432.012H533.095Z" fill="#EF6324"/>
<path d="M843.973 560.001H79.1796V503.21C79.1796 488.628 90.9972 476.811 105.579 476.811H817.573C832.155 476.811 843.973 488.628 843.973 503.21V560.001Z" fill="#D88F59"/>
<path d="M755.974 206.408H591.365V537.611H755.974V206.408Z" fill="#FFBC70"/>
<path d="M840.001 40.8066C840.001 18.2812 821.739 0 799.194 0H125.613C103.068 0 84.8061 18.2617 84.8061 40.8066V189.587H840.001V40.8066Z" fill="#ED4726"/>
<path d="M842.396 102.406L928 189.587H0L84.8061 102.406H842.396Z" fill="#F9863A"/>
<g opacity="0.29">
<path d="M378.629 538.877C378.629 545.866 372.964 551.531 365.955 551.531H318.003C311.014 551.531 305.329 545.866 305.329 538.877V530.719C305.329 523.73 310.995 518.064 318.003 518.064H365.955C372.964 518.064 378.629 523.73 378.629 530.719V538.877Z" fill="#FAFAFA"/>
</g>
<g opacity="0.29">
<path d="M229.187 482.066H277.158C284.147 482.066 289.813 487.732 289.813 494.721V502.878C289.813 509.868 284.147 515.533 277.158 515.533H229.187C222.197 515.533 216.513 509.848 216.513 502.859V494.702C216.513 487.712 222.197 482.027 229.187 482.027V482.066Z" fill="#FAFAFA"/>
</g>
<g opacity="0.29">
<path d="M235.826 540.064C235.826 547.073 230.141 552.738 223.151 552.738H175.2C168.21 552.738 162.526 547.073 162.526 540.064V531.926C162.526 524.937 168.191 519.252 175.2 519.252H223.151C230.141 519.252 235.826 524.917 235.826 531.926V540.064Z" fill="#FAFAFA"/>
</g>
<g opacity="0.29">
<path d="M169.223 505.994C169.223 512.983 163.557 518.668 156.568 518.668H108.597C101.608 518.668 95.9228 512.983 95.9228 505.994V497.856C95.9228 490.867 101.588 485.182 108.597 485.182H156.568C163.557 485.182 169.223 490.847 169.223 497.856V505.994Z" fill="#FAFAFA"/>
</g>
<path d="M644.379 206.408H591.579V522.795H644.379V206.408Z" fill="#F9A54B"/>
<g opacity="0.27">
<path d="M273.79 221.691H202.417V221.769H131.044V252.199C131.044 271.921 147.028 287.905 166.731 287.905C186.433 287.905 202.3 272.038 202.417 252.433C202.573 271.999 218.479 287.827 238.103 287.827C257.728 287.827 273.673 271.96 273.79 252.355C273.907 271.96 289.832 287.827 309.476 287.827C329.12 287.827 345.182 271.843 345.182 252.121V221.691H273.79Z" fill="#41636B"/>
<path d="M486.194 221.925H416.574V221.691H345.182V252.121C345.182 271.824 361.166 287.827 380.868 287.827C397.981 287.827 412.271 275.776 415.756 259.714C419.144 275.892 433.492 288.06 450.683 288.06C469.821 288.06 485.396 272.992 486.292 254.068C487.226 272.953 502.782 288.002 521.9 288.002C541.019 288.002 557.606 271.999 557.606 252.296V221.867H486.214V221.944L486.194 221.925Z" fill="#41636B"/>
<path d="M700.41 221.691H629.037V221.769H557.684V252.199C557.684 271.921 573.668 287.905 593.37 287.905C613.073 287.905 628.94 272.057 629.056 252.452C629.232 272.018 645.118 287.827 664.723 287.827C684.328 287.827 700.293 271.96 700.41 252.355C700.546 271.96 716.452 287.827 736.096 287.827C755.74 287.827 771.802 271.843 771.802 252.121V221.691H700.41Z" fill="#41636B"/>
<path d="M109.57 221.848V284.985C122.167 279.475 130.967 266.918 130.967 252.277V221.848H109.57Z" fill="#41636B"/>
</g>
<path d="M661.063 388.812C661.063 392.004 658.493 394.574 655.281 394.574H612.138C608.945 394.574 606.356 391.985 606.356 388.812C606.356 385.638 608.945 383.029 612.138 383.029H655.281C658.474 383.029 661.063 385.619 661.063 388.812Z" fill="white"/>
<path d="M622.573 388.811C622.573 395.431 617.2 400.804 610.581 400.804C603.961 400.804 598.568 395.431 598.568 388.811C598.568 382.192 603.942 376.818 610.581 376.818C617.219 376.818 622.573 382.192 622.573 388.811Z" fill="white"/>
<path d="M72.1124 219.978C72.1124 239.72 56.1091 255.704 36.3872 255.704C16.6653 255.704 0.661926 239.72 0.661926 219.978V189.529H72.1124V219.978Z" fill="#FEAA75"/>
<path d="M143.388 219.9C143.388 239.642 127.384 255.626 107.643 255.626C87.9016 255.626 71.9177 239.622 71.9177 219.9V189.451H143.368V219.9H143.388Z" fill="#EF6324"/>
<path d="M214.936 219.822C214.936 239.544 198.932 255.547 179.191 255.547C159.45 255.547 143.485 239.544 143.485 219.822V189.354H214.936V219.822Z" fill="#FEAA75"/>
<path d="M286.347 219.744C286.347 239.485 270.344 255.489 250.622 255.489C230.9 255.489 214.897 239.505 214.897 219.744V189.295H286.347V219.744Z" fill="#EF6324"/>
<path d="M357.778 219.744C357.778 239.485 341.775 255.489 322.053 255.489C302.331 255.489 286.328 239.505 286.328 219.744V189.295H357.778V219.744Z" fill="#FEAA75"/>
<path d="M429.248 219.744C429.248 239.485 413.264 255.489 393.523 255.489C373.782 255.489 357.798 239.505 357.798 219.744V189.295H429.248V219.744Z" fill="#EF6324"/>
<path d="M499.102 219.978C499.102 239.72 483.099 255.704 463.358 255.704C443.616 255.704 427.632 239.72 427.632 219.978V189.529H499.083V219.978H499.102Z" fill="#FEAA75"/>
<path d="M570.397 219.9C570.397 239.642 554.394 255.626 534.672 255.626C514.95 255.626 498.947 239.622 498.947 219.9V189.451H570.397V219.9Z" fill="#EF6324"/>
<path d="M641.925 219.822C641.925 239.544 625.922 255.547 606.2 255.547C586.478 255.547 570.475 239.544 570.475 219.822V189.354H641.925V219.822Z" fill="#FEAA75"/>
<path d="M713.357 219.744C713.357 239.485 697.353 255.489 677.631 255.489C657.909 255.489 641.906 239.505 641.906 219.744V189.295H713.357V219.744Z" fill="#EF6324"/>
<path d="M808.773 542.399C808.773 531.808 800.187 523.203 789.577 523.203H555.971C545.36 523.203 536.774 531.789 536.774 542.399V558.403H808.773V542.399Z" fill="#B76B37"/>
<path d="M713.356 189.295L666.592 102.172L723.947 102.405L784.787 189.295H713.356Z" fill="#FEBC92"/>
<path d="M713.356 189.295L666.592 102.172H606.473L641.925 189.373L713.356 189.295Z" fill="#F28452"/>
<path d="M570.397 189.45L548.203 102.328L606.473 102.172L641.925 189.373L570.397 189.45Z" fill="#FEBC92"/>
<path d="M570.397 189.451L548.203 102.328H490.127L499.102 189.529L570.397 189.451Z" fill="#F28452"/>
<path d="M427.652 189.529L431.915 102.406L490.127 102.328L499.102 189.529H427.652Z" fill="#FEBC92"/>
<path d="M427.652 189.528L431.915 102.405L375.456 102.094L357.778 189.294L427.652 189.528Z" fill="#F28452"/>
<path d="M72.1124 189.527L143.446 102.404H84.0468L0.661926 189.527H72.1124Z" fill="#FEBC92"/>
<path d="M72.1124 189.527L143.446 102.404H200.568L143.621 189.293L72.1124 189.527Z" fill="#F28452"/>
<path d="M215.052 189.295L257.903 102.172L200.568 102.405L143.621 189.295H215.052Z" fill="#FEBC92"/>
<path d="M215.052 189.295L257.903 102.172H318.042L286.483 189.373L215.052 189.295Z" fill="#F28452"/>
<path d="M358.012 189.45L375.456 102.094L318.042 102.172L286.483 189.372L358.012 189.45Z" fill="#FEBC92"/>
</g>
<defs>
<clipPath id="clip0_589_191">
<rect width="928" height="560" fill="white"/>
</clipPath>
</defs>
</svg>
